<svg t="1660378306156" class="icon" viewBox="0 0 1025 1024" version="1.1" xmlns="http://www.w3.org/2000/svg" p-id="1403"
     width="30" height="30">
    <path d="M957.78816 384l-57.40544 0c-35.16416 0-65.98656-29.73696-68.38272-64l0 0c0-182.66112-147.2512-320-331.18208-320l-167.8336 0c-183.808 0-332.86144 148.00896-332.98432 330.67008l0 362.8032c0 182.66112 149.17632 330.52672 332.98432 330.52672l358.42048 0c183.95136 0 332.5952-147.88608 332.5952-330.52672l0-234.37312c0-36.49536-29.45024-75.07968-66.21184-75.07968zM320 256l192 0c35.20512 0 64 28.79488 64 64s-28.79488 64-64 64l-192 0c-35.20512 0-64-28.79488-64-64s28.79488-64 64-64zM704 768l-384 0c-35.20512 0-64-28.79488-64-64s28.79488-64 64-64l384 0c35.20512 0 64 28.79488 64 64s-28.79488 64-64 64z"
          p-id="1404" fill="#8bd5ff"></path>
</svg>